# xmcd CD database file generated by MAGIX-FreeDB-MP3_Maker_14_Trial v2.0beta1
# 
# Track frame offsets:
#      182
#      10565
#      32240
#      46377
#      62147
#      79237
#      91510
#      107592
#      124802
#      143020
#      156477
#      176420
#      191895
#      208415
#      216365
#      231852
# 
# Disc length: 3284 seconds
# 
# Revision: 2 
# Processed by: cddbd v1.5.2PL0 Copyright (c) Steve Scherf et al.
# Submitted via: MAGIX-FreeDB-MP3_Maker_14_Trial v2.0beta1
# 
DISCID=e00cd210
DTITLE=Truck Stop - In Concert
DYEAR=1996
DGENRE=Country
TTITLE0=Truck Stop - Die Frau mit dem Gurt
TTITLE1=Truck Stop - Jonny Cash - Medley
TTITLE2=Truck Stop - Amanda
TTITLE3=Truck Stop - Du bist der absolute Wahnsinn
TTITLE4=Truck Stop - I´m A Nut
TTITLE5=Truck Stop - Freizeit Cowboy
TTITLE6=Truck Stop - Good Hearted Woman
TTITLE7=Truck Stop - Angel entspannt
TTITLE8=Truck Stop - Old Texas Town die Westernstadt
TTITLE9=Truck Stop - Take It Easy altes Haus
TTITLE10=Truck Stop - Cowboy bei der Bahn
TTITLE11=Truck Stop - Blue Grass - Medley
TTITLE12=Truck Stop - Ich möcht so gern Dave Dudley hör`n
TTITLE13=Truck Stop - Square Dance
TTITLE14=Truck Stop - Nastrovie
TTITLE15=Truck Stop - Der Traum vom großen Abenteuer
EXTD=
EXTT0=
EXTT1=
EXTT2=
EXTT3=
EXTT4=
EXTT5=
EXTT6=
EXTT7=
EXTT8=
EXTT9=
EXTT10=
EXTT11=
EXTT12=
EXTT13=
EXTT14=
EXTT15=
PLAYORDER=
